<mxfile host="app.diagrams.net" modified="2024-03-12T16:01:38.226Z" agent="Mozilla/5.0 (Windows NT 10.0; Win64; x64) AppleWebKit/537.36 (KHTML, like Gecko) Chrome/121.0.0.0 Safari/537.36 OPR/107.0.0.0" etag="EtJGdSJ8HNiBleYhkPK2" version="24.0.5" type="github" pages="3">
  <diagram id="1PF_EZPZzNmP9C-_2_kK" name="xinema riulistic">
    <mxGraphModel dx="3560" dy="1982" grid="1" gridSize="10" guides="1" tooltips="1" connect="1" arrows="1" fold="1" page="0" pageScale="1" pageWidth="850" pageHeight="1100" math="0" shadow="0">
      <root>
        <mxCell id="0" />
        <mxCell id="1" parent="0" />
        <mxCell id="19vAWMkq8F4uJjXHVNW_-1" value="&lt;b&gt;TECH&lt;/b&gt;&lt;div&gt;&lt;b&gt;&lt;br&gt;&lt;/b&gt;&lt;div&gt;- ExpressJS - MVC&lt;/div&gt;&lt;div&gt;- Templates: handlebars&lt;/div&gt;&lt;div&gt;- Database: SQLite&lt;/div&gt;&lt;/div&gt;&lt;div&gt;&lt;br&gt;&lt;/div&gt;&lt;div&gt;&lt;b&gt;FEATURES&lt;/b&gt;&lt;/div&gt;&lt;div&gt;- Movie manager&lt;/div&gt;&lt;div&gt;- Booking ticket&lt;/div&gt;" style="shape=note;strokeWidth=2;fontSize=14;size=20;whiteSpace=wrap;html=1;fillColor=#fff2cc;strokeColor=#d6b656;fontColor=#666600;align=left;spacingLeft=10;" parent="1" vertex="1">
          <mxGeometry x="-400" y="-80" width="200" height="280" as="geometry" />
        </mxCell>
        <mxCell id="19vAWMkq8F4uJjXHVNW_-5" value="List" style="swimlane;fontStyle=0;childLayout=stackLayout;horizontal=1;startSize=30;horizontalStack=0;resizeParent=1;resizeParentMax=0;resizeLast=0;collapsible=1;marginBottom=0;whiteSpace=wrap;html=1;fillColor=#cce5ff;strokeColor=#36393d;" parent="1" vertex="1">
          <mxGeometry x="-360" y="360" width="140" height="120" as="geometry" />
        </mxCell>
        <mxCell id="19vAWMkq8F4uJjXHVNW_-6" value="Item 1" style="text;strokeColor=none;fillColor=none;align=left;verticalAlign=middle;spacingLeft=4;spacingRight=4;overflow=hidden;points=[[0,0.5],[1,0.5]];portConstraint=eastwest;rotatable=0;whiteSpace=wrap;html=1;" parent="19vAWMkq8F4uJjXHVNW_-5" vertex="1">
          <mxGeometry y="30" width="140" height="30" as="geometry" />
        </mxCell>
        <mxCell id="19vAWMkq8F4uJjXHVNW_-7" value="Item 2" style="text;strokeColor=none;fillColor=none;align=left;verticalAlign=middle;spacingLeft=4;spacingRight=4;overflow=hidden;points=[[0,0.5],[1,0.5]];portConstraint=eastwest;rotatable=0;whiteSpace=wrap;html=1;" parent="19vAWMkq8F4uJjXHVNW_-5" vertex="1">
          <mxGeometry y="60" width="140" height="30" as="geometry" />
        </mxCell>
        <mxCell id="19vAWMkq8F4uJjXHVNW_-8" value="Item 3" style="text;strokeColor=none;fillColor=none;align=left;verticalAlign=middle;spacingLeft=4;spacingRight=4;overflow=hidden;points=[[0,0.5],[1,0.5]];portConstraint=eastwest;rotatable=0;whiteSpace=wrap;html=1;" parent="19vAWMkq8F4uJjXHVNW_-5" vertex="1">
          <mxGeometry y="90" width="140" height="30" as="geometry" />
        </mxCell>
        <mxCell id="19vAWMkq8F4uJjXHVNW_-10" value="UI Describe" style="shape=umlFrame;whiteSpace=wrap;html=1;pointerEvents=0;fillColor=#ffcc99;strokeColor=#36393d;width=120;height=30;" parent="1" vertex="1">
          <mxGeometry x="640" y="-80" width="1240" height="880" as="geometry" />
        </mxCell>
        <mxCell id="19vAWMkq8F4uJjXHVNW_-11" value="Connection" style="shape=umlFrame;whiteSpace=wrap;html=1;pointerEvents=0;fillColor=#cdeb8b;strokeColor=#36393d;width=120;height=30;" parent="1" vertex="1">
          <mxGeometry x="-40" y="-80" width="640" height="360" as="geometry" />
        </mxCell>
        <mxCell id="19vAWMkq8F4uJjXHVNW_-12" value="Database" style="shape=umlFrame;whiteSpace=wrap;html=1;pointerEvents=0;fillColor=#cce5ff;strokeColor=#36393d;width=120;height=30;" parent="1" vertex="1">
          <mxGeometry x="-400" y="320" width="1000" height="480" as="geometry" />
        </mxCell>
      </root>
    </mxGraphModel>
  </diagram>
  <diagram id="ZHrjsVg5OWGoLjBiYnYv" name="Xinema Riulistic - API ver">
    <mxGraphModel dx="1380" dy="791" grid="1" gridSize="10" guides="1" tooltips="1" connect="1" arrows="1" fold="1" page="0" pageScale="1" pageWidth="850" pageHeight="1100" math="0" shadow="0">
      <root>
        <mxCell id="0" />
        <mxCell id="1" parent="0" />
      </root>
    </mxGraphModel>
  </diagram>
  <diagram id="dPnEg3bz-gx6AfCQSSGy" name="Sand sáº»">
    <mxGraphModel dx="1380" dy="791" grid="1" gridSize="10" guides="1" tooltips="1" connect="1" arrows="1" fold="1" page="0" pageScale="1" pageWidth="850" pageHeight="1100" math="0" shadow="0">
      <root>
        <mxCell id="0" />
        <mxCell id="1" parent="0" />
      </root>
    </mxGraphModel>
  </diagram>
</mxfile>
